<svg width="14" height="14" viewBox="0 0 14 14" fill="none" xmlns="http://www.w3.org/2000/svg">
<g clip-path="url(#clip0_2360_57332)">
<path d="M8.27923 11.2816L4.89648 9.32795L5.23161 8.74805L8.6137 10.7017L8.27923 11.2816Z" fill="#474D66"/>
<path d="M11.7318 12.3947C12.7087 11.472 13.3278 10.1757 13.3278 8.72884C13.3278 6.94625 12.3915 5.33844 10.9358 4.43544L12.5668 1.61225L12.3106 1.46459L12.7129 0.765031L11.6583 0.15625L11.2551 0.854719L10.9854 0.698969L6.97572 7.64472L7.32594 7.84684L6.82872 8.70697L7.70984 9.21578L8.20728 8.35522L8.55706 8.55734L10.2432 5.63725C10.763 5.96856 11.191 6.4255 11.4877 6.96587C11.7843 7.50623 11.94 8.11263 11.9405 8.72906C11.9405 10.7503 10.295 12.3949 8.27356 12.3949H5.31913V13.7828H13.6356V12.3949H11.7322L11.7318 12.3947ZM4.34941 1.72163V0.619781H4.48503L4.48306 0.355531H3.24734L3.24931 0.619781H3.395V1.72163H2.47297V0.619781H2.60816L2.60663 0.355531H1.36981L1.37222 0.619781H1.51791V1.72163H0.164062V7.24091H5.69166V1.72163H4.34984H4.34941ZM5.22353 6.77366H0.631531V2.18888H1.51769V5.71513C1.51769 5.982 1.73578 6.19878 1.99894 6.19878C2.26253 6.19769 2.47275 5.98156 2.47275 5.71513V2.18888H3.39478V5.71513C3.39478 5.982 3.61309 6.19878 3.87625 6.19878C4.13984 6.19769 4.35006 5.98156 4.34963 5.71513V2.18888H5.22353V6.77366V6.77366Z" fill="#474D66"/>
</g>
<defs>
<clipPath id="clip0_2360_57332">
<rect width="14" height="14" fill="white"/>
</clipPath>
</defs>
</svg>
