<svg width="20" height="20" viewBox="0 0 20 20" fill="none" xmlns="http://www.w3.org/2000/svg">
<rect width="20" height="20" rx="4" fill="#F4F6FA"/>
<path fill-rule="evenodd" clip-rule="evenodd" d="M12.25 6.25C12.7 6.25 13 5.875 13 5.5V4.75C13 4.3 12.7 4 12.25 4C11.8 4 11.5 4.3 11.5 4.75V5.5C11.5 5.875 11.8 6.25 12.25 6.25ZM14.5 4.75H13.75V5.5C13.75 6.325 13.075 7 12.25 7C11.425 7 10.75 6.325 10.75 5.5V4.75H8.5V5.5C8.5 6.325 7.825 7 7 7C6.175 7 5.5 6.325 5.5 5.5V4.75H4.75C4.3 4.75 4 5.125 4 5.5V14.5C4 14.95 4.3 15.25 4.75 15.25H14.5C14.95 15.25 15.25 14.95 15.25 14.5V5.5C15.25 5.05 14.875 4.75 14.5 4.75ZM7.75 13.75H5.5V11.5H7.75V13.75ZM7.75 10.75H5.5V8.5H7.75V10.75ZM10.75 13.75H8.5V11.5H10.75V13.75ZM10.75 10.75H8.5V8.5H10.75V10.75ZM13.75 13.75H11.5V11.5H13.75V13.75ZM13.75 10.75H11.5V8.5H13.75V10.75ZM7 6.25C7.45 6.25 7.75 5.875 7.75 5.5V4.75C7.75 4.3 7.45 4 7 4C6.55 4 6.25 4.3 6.25 4.75V5.5C6.25 5.875 6.55 6.25 7 6.25Z" fill="#8F95B2"/>
</svg>
