<svg width="12" height="12" viewBox="0 0 12 12" fill="none" xmlns="http://www.w3.org/2000/svg">
<path fill-rule="evenodd" clip-rule="evenodd" d="M6 8.25H5.25V9H6V8.25ZM3 8.25H2.25V9H3V8.25ZM8.25 2.25C8.7 2.25 9 1.875 9 1.5V0.75C9 0.375 8.7 0 8.25 0C7.8 0 7.5 0.375 7.5 0.75V1.5C7.5 1.875 7.875 2.25 8.25 2.25ZM3 2.25C3.375 2.25 3.75 1.875 3.75 1.5V0.75C3.75 0.375 3.375 0 3 0C2.625 0 2.25 0.375 2.25 0.75V1.5C2.25 1.875 2.625 2.25 3 2.25ZM10.5 0.75H9.75V1.5C9.75 2.325 9.075 3 8.25 3C7.425 3 6.75 2.325 6.75 1.5V0.75H4.5V1.5C4.5 2.325 3.825 3 3 3C2.175 3 1.5 2.325 1.5 1.5V0.75H0.75C0.375 0.75 0 1.125 0 1.5V10.5C0 10.875 0.375 11.25 0.75 11.25H10.5C10.95 11.25 11.25 10.875 11.25 10.5V1.5C11.25 1.125 10.95 0.75 10.5 0.75ZM3.75 9.75H1.5V7.5H3.75V9.75ZM3.75 6.75H1.5V4.5H3.75V6.75ZM6.75 9.75H4.5V7.5H6.75V9.75ZM6.75 6.75H4.5V4.5H6.75V6.75ZM9.75 9.75H7.5V7.5H9.75V9.75ZM9.75 6.75H7.5V4.5H9.75V6.75ZM9 5.25H8.25V6H9V5.25Z" fill="white"/>
</svg>
