<svg width="16" height="18" viewBox="0 0 16 18" fill="none" xmlns="http://www.w3.org/2000/svg">
<path d="M14.7647 14.1217H13C12.7059 13.0502 11.75 12.3359 10.5735 12.3359C9.17647 12.3359 8 13.4788 8 14.8359C8 16.1931 9.17647 17.3359 10.5735 17.3359C11.75 17.3359 12.7059 16.6217 13 15.5502H14.7647C15.2059 15.5502 15.5 15.1931 15.5 14.8359C15.5 14.4074 15.2059 14.1217 14.7647 14.1217Z" fill="#474D66"/>
<path d="M6.45745 14H1.20922C0.783688 14 0.5 14.4167 0.5 14.8333C0.5 15.3333 0.85461 15.6667 1.20922 15.6667H6.45745C6.88298 15.6667 7.16667 15.25 7.16667 14.8333C7.16667 14.3333 6.81206 14 6.45745 14Z" fill="#474D66"/>
<path d="M1.20922 4.0026H6.45745C6.88298 4.0026 7.16667 3.58594 7.16667 3.16927C7.16667 2.7526 6.81206 2.33594 6.45745 2.33594H1.20922C0.783688 2.33594 0.5 2.7526 0.5 3.16927C0.5 3.58594 0.85461 4.0026 1.20922 4.0026Z" fill="#474D66"/>
<path d="M10.5735 5.66797C11.75 5.66797 12.7059 4.95368 13 3.88225H14.7647C15.2059 3.88225 15.5 3.52511 15.5 3.16797C15.5 2.81083 15.1324 2.45368 14.7647 2.45368H13C12.7059 1.38225 11.75 0.667969 10.5735 0.667969C9.17647 0.667969 8 1.81083 8 3.16797C8 4.52511 9.17647 5.66797 10.5735 5.66797Z" fill="#474D66"/>
<path d="M1.23529 9.71429H3C3.29412 10.7143 4.25 11.5 5.42647 11.5C6.82353 11.5 8 10.3571 8 9C8 7.64286 6.82353 6.5 5.42647 6.5C4.25 6.5 3.29412 7.21429 3 8.28571H1.23529C0.794118 8.28571 0.5 8.64286 0.5 9C0.5 9.35714 0.867647 9.71429 1.23529 9.71429Z" fill="#474D66"/>
<path d="M14.7877 8.16797H9.55474C9.12463 8.16797 8.83789 8.58464 8.83789 9.0013C8.83789 9.41797 9.19631 9.83464 9.55474 9.83464H14.7877C15.2178 9.83464 15.5046 9.41797 15.5046 9.0013C15.5046 8.58464 15.2178 8.16797 14.7877 8.16797Z" fill="#474D66"/>
</svg>
