<svg width="22" height="22" viewBox="0 0 22 22" fill="none" xmlns="http://www.w3.org/2000/svg">
<path d="M11 10.0833C8.70833 10.0833 6.76042 9.72431 5.15625 9.00625C3.55208 8.28819 2.75 7.425 2.75 6.41667C2.75 5.40833 3.55208 4.54514 5.15625 3.82708C6.76042 3.10903 8.70833 2.75 11 2.75C13.2917 2.75 15.2396 3.10903 16.8438 3.82708C18.4479 4.54514 19.25 5.40833 19.25 6.41667C19.25 7.425 18.4479 8.28819 16.8438 9.00625C15.2396 9.72431 13.2917 10.0833 11 10.0833ZM11 14.6667C8.70833 14.6667 6.76042 14.3076 5.15625 13.5896C3.55208 12.8715 2.75 12.0083 2.75 11V8.70833C2.75 9.38056 3.06319 9.94981 3.68958 10.4161C4.31597 10.8818 5.06458 11.2597 5.93542 11.55C6.80625 11.8403 7.71161 12.0502 8.6515 12.1797C9.59078 12.3099 10.3736 12.375 11 12.375C11.6264 12.375 12.4092 12.3099 13.3485 12.1797C14.2884 12.0502 15.1938 11.8403 16.0646 11.55C16.9354 11.2597 17.684 10.8818 18.3104 10.4161C18.9368 9.94981 19.25 9.38056 19.25 8.70833V11C19.25 12.0083 18.4479 12.8715 16.8438 13.5896C15.2396 14.3076 13.2917 14.6667 11 14.6667ZM11 19.25C8.70833 19.25 6.76042 18.891 5.15625 18.1729C3.55208 17.4549 2.75 16.5917 2.75 15.5833V13.2917C2.75 13.9639 3.06319 14.5331 3.68958 14.9994C4.31597 15.4651 5.06458 15.8431 5.93542 16.1333C6.80625 16.4236 7.71161 16.6338 8.6515 16.764C9.59078 16.8936 10.3736 16.9583 11 16.9583C11.6264 16.9583 12.4092 16.8936 13.3485 16.764C14.2884 16.6338 15.1938 16.4236 16.0646 16.1333C16.9354 15.8431 17.684 15.4651 18.3104 14.9994C18.9368 14.5331 19.25 13.9639 19.25 13.2917V15.5833C19.25 16.5917 18.4479 17.4549 16.8438 18.1729C15.2396 18.891 13.2917 19.25 11 19.25Z" fill="#474D66"/>
</svg>
