<svg width="194" height="184" viewBox="0 0 194 184" fill="none" xmlns="http://www.w3.org/2000/svg">
<path d="M181.101 92.5C182.15 92.5 183.002 91.6493 182.98 90.6007C182.491 67.0212 172.912 44.5111 156.2 27.7997C139.041 10.6402 115.767 1 91.5 1C67.2327 0.999998 43.9593 10.6401 26.7997 27.7997C10.0883 44.5111 0.508696 67.0211 0.0196906 90.6007C-0.00205536 91.6492 0.850221 92.5 1.89902 92.5C2.94782 92.5 3.7959 91.6493 3.81858 90.6008C4.30696 68.0286 13.4862 46.4845 29.4854 30.4853C45.9327 14.038 68.24 4.79804 91.5 4.79804C114.76 4.79804 137.067 14.038 153.515 30.4854C169.514 46.4845 178.693 68.0286 179.181 90.6008C179.204 91.6493 180.052 92.5 181.101 92.5Z" fill="#E7EAF8"/>
<path d="M177.56 68.4403C178.843 68.0966 179.607 66.7771 179.23 65.5042C173.166 45.0387 160.126 27.3093 142.337 15.4221C123.881 3.08916 101.57 -2.11396 79.5624 0.782059C57.5545 3.67808 37.3497 14.4758 22.7122 31.1635C8.60384 47.248 0.594867 67.7473 0.0318558 89.0848C-0.00316365 90.412 1.07628 91.4889 2.40394 91.489C3.7316 91.4892 4.80453 90.4125 4.84148 89.0853C5.40313 68.9145 12.9875 49.5415 26.3267 34.3339C40.1951 18.523 59.3382 8.29269 80.1897 5.54884C101.041 2.80499 122.179 7.73472 139.666 19.4196C156.485 30.6587 168.823 47.4101 174.584 66.749C174.963 68.0214 176.278 68.7839 177.56 68.4403Z" fill="#24D164"/>
<path d="M125 86C125 84.4087 124.368 82.8826 123.243 81.7574C122.117 80.6321 120.591 80 119 80H100.04L102.92 66.29C102.98 65.99 103.01 65.66 103.01 65.33C103.01 64.1 102.5 62.96 101.69 62.15L98.51 59L78.77 78.74C77.66 79.85 77 81.35 77 83V113C77 114.591 77.6321 116.117 78.7574 117.243C79.8826 118.368 81.4087 119 83 119H110C112.49 119 114.62 117.5 115.52 115.34L124.58 94.19C124.85 93.5 125 92.78 125 92V86ZM59 119H71V83H59V119Z" fill="#24D164"/>
<path d="M85.8333 47L84.0833 52.7167L80 57.0917L85.8333 55.75L91.6667 57.15L87.5833 52.775L85.8333 47Z" fill="#24D164"/>
<path d="M73.0013 127.517L71.2513 133.233L67.168 137.608L73.0013 136.267L78.8346 137.667L74.7513 133.292L73.0013 127.517Z" fill="#24D164"/>
<path d="M119.001 127.517L117.251 133.233L113.168 137.608L119.001 136.267L124.835 137.667L120.751 133.292L119.001 127.517Z" fill="#E7EAF8"/>
<path d="M46.0013 64.5166L44.2513 70.2333L40.168 74.6083L46.0013 73.2666L51.8346 74.6666L47.7513 70.2916L46.0013 64.5166Z" fill="#24D164"/>
<path d="M47.0013 104.517L45.2513 110.233L41.168 114.608L47.0013 113.267L52.8346 114.667L48.7513 110.292L47.0013 104.517Z" fill="#E7EAF8"/>
<path d="M112.001 50.5416L112.701 52.8749L114.335 54.6249L112.001 54.0999L109.61 54.6249L111.243 52.8749L112.001 50.5416ZM112.001 46.5166L110.251 52.2333L106.168 56.6083L112.001 55.2666L117.835 56.6666L113.751 52.2916L112.001 46.5166Z" fill="#E7EAF8"/>
<path d="M131.001 68.5416L131.701 70.8749L133.335 72.6249L131.001 72.0999L128.61 72.6249L130.243 70.8749L131.001 68.5416ZM131.001 64.5166L129.251 70.2333L125.168 74.6083L131.001 73.2666L136.835 74.6666L132.751 70.2916L131.001 64.5166Z" fill="#E7EAF8"/>
<path d="M135.001 103.542L135.701 105.875L137.335 107.625L135.001 107.1L132.61 107.625L134.243 105.875L135.001 103.542ZM135.001 99.5166L133.251 105.233L129.168 109.608L135.001 108.267L140.835 109.667L136.751 105.292L135.001 99.5166Z" fill="#24D164"/>
<g filter="url(#filter0_d_2952_54104)">
<circle cx="179" cy="71" r="7" fill="white"/>
</g>
<ellipse cx="178.996" cy="71" rx="3" ry="3" fill="#24D164"/>
<defs>
<filter id="filter0_d_2952_54104" x="164" y="57" width="30" height="30" filterUnits="userSpaceOnUse" color-interpolation-filters="sRGB">
<feFlood flood-opacity="0" result="BackgroundImageFix"/>
<feColorMatrix in="SourceAlpha" type="matrix" values="0 0 0 0 0 0 0 0 0 0 0 0 0 0 0 0 0 0 127 0" result="hardAlpha"/>
<feOffset dy="1"/>
<feGaussianBlur stdDeviation="4"/>
<feComposite in2="hardAlpha" operator="out"/>
<feColorMatrix type="matrix" values="0 0 0 0 0.141176 0 0 0 0 0.819608 0 0 0 0 0.392157 0 0 0 0.14 0"/>
<feBlend mode="normal" in2="BackgroundImageFix" result="effect1_dropShadow_2952_54104"/>
<feBlend mode="normal" in="SourceGraphic" in2="effect1_dropShadow_2952_54104" result="shape"/>
</filter>
</defs>
</svg>
