<svg width="48" height="48" viewBox="0 0 48 48" fill="none" xmlns="http://www.w3.org/2000/svg">
<rect width="48" height="48" rx="12" fill="#FFFBEB"/>
<path d="M24 21C25.933 21 27.5 19.433 27.5 17.5C27.5 15.567 25.933 14 24 14C22.067 14 20.5 15.567 20.5 17.5C20.5 19.433 22.067 21 24 21Z" stroke="#FFC800" stroke-width="2" stroke-linecap="round" stroke-linejoin="round"/>
<path d="M14 32.5C14 28.0815 18.0295 24.5 23 24.5" stroke="#FFC800" stroke-width="2" stroke-linecap="round" stroke-linejoin="round"/>
<path d="M29 33.5C31.4853 33.5 33.5 31.4853 33.5 29C33.5 26.5147 31.4853 24.5 29 24.5C26.5147 24.5 24.5 26.5147 24.5 29C24.5 31.4853 26.5147 33.5 29 33.5Z" stroke="#FFC800" stroke-width="2"/>
<path d="M28.5 27.5V29.5H30.5" stroke="#FFC800" stroke-width="2" stroke-linecap="round" stroke-linejoin="round"/>
</svg>
