<svg width="22" height="16" viewBox="0 0 22 16" fill="none" xmlns="http://www.w3.org/2000/svg">
<path d="M1.1 0.357422C1.70844 0.357422 2.2 0.84537 2.2 1.44933V10.1846H9.9V4.72507C9.9 4.1211 10.3916 3.63316 11 3.63316H18.7C20.5219 3.63316 22 5.10041 22 6.90889V14.5523C22 15.1562 21.5084 15.6442 20.9 15.6442C20.2916 15.6442 19.8 15.1562 19.8 14.5523V13.4604H2.2V14.5523C2.2 15.1562 1.70844 15.6442 1.1 15.6442C0.491562 15.6442 0 15.1562 0 14.5523V1.44933C0 0.84537 0.491562 0.357422 1.1 0.357422ZM6.05 9.09272C4.53062 9.09272 3.3 7.87114 3.3 6.36294C3.3 4.85473 4.53062 3.63316 6.05 3.63316C7.56938 3.63316 8.8 4.85473 8.8 6.36294C8.8 7.87114 7.56938 9.09272 6.05 9.09272Z" fill="#696F8C"/>
</svg>
