<svg width="18" height="16" viewBox="0 0 18 16" fill="none" xmlns="http://www.w3.org/2000/svg">
<path fill-rule="evenodd" clip-rule="evenodd" d="M16.4883 6.7373H4.51328L8.62578 2.6248C8.85078 2.3998 8.98828 2.0873 8.98828 1.7373C8.98828 1.0498 8.42578 0.487305 7.73828 0.487305C7.38828 0.487305 7.07578 0.624805 6.85078 0.849805L0.600781 7.0998C0.375781 7.3373 0.238281 7.6498 0.238281 7.9873C0.238281 8.3248 0.375781 8.64981 0.600781 8.8748L6.85078 15.1248C7.07578 15.3498 7.38828 15.4873 7.73828 15.4873C8.42578 15.4873 8.98828 14.9248 8.98828 14.2373C8.98828 13.8873 8.85078 13.5748 8.62578 13.3498L4.51328 9.2373H16.5008C17.1883 9.2373 17.7508 8.6748 17.7508 7.9873C17.7508 7.2998 17.1758 6.7373 16.4883 6.7373Z" fill="#474D66"/>
</svg>
