<svg width="48" height="48" viewBox="0 0 48 48" fill="none" xmlns="http://www.w3.org/2000/svg">
<rect width="48" height="48" rx="24" fill="#FDF4F4"/>
<path d="M13.875 21.0323C13.875 17.6106 16.1452 14.4375 19.2542 14.4375C21.4114 14.4375 23.0117 15.8606 24 17.8806C24.9878 15.8612 26.5886 14.4375 28.7464 14.4375C31.8553 14.4375 34.125 17.6111 34.125 21.0323C34.1243 21.6292 34.0583 22.2243 33.9281 22.8069C33.3748 22.1247 32.6761 21.5747 31.8829 21.1971C31.0897 20.8196 30.2222 20.6241 29.3438 20.625C26.0818 20.625 23.4375 23.2693 23.4375 26.5312C23.4372 27.6398 23.749 28.7261 24.3371 29.6658C24.9252 30.6055 25.7659 31.3608 26.763 31.8452C25.1936 32.9482 24 33.5625 24 33.5625C24 33.5625 13.875 28.671 13.875 21.0323Z" fill="#D14343"/>
<path d="M30.7467 26.8123C30.7465 26.9682 30.7139 27.1223 30.6509 27.265C30.588 27.4076 30.4961 27.5355 30.3811 27.6408C30.2661 27.746 30.1305 27.8261 29.9828 27.8762C29.8352 27.9262 29.6788 27.945 29.5235 27.9314C29.3682 27.9178 29.2174 27.8721 29.0808 27.7971C28.9441 27.7221 28.8245 27.6196 28.7295 27.496C28.6346 27.3724 28.5663 27.2304 28.5292 27.079C28.492 26.9276 28.4867 26.7701 28.5136 26.6166L27.1523 25.2553L27.9483 24.46L29.2415 25.7537C29.4113 25.6927 29.5933 25.6735 29.7721 25.6976C29.9509 25.7217 30.1213 25.7885 30.2689 25.8923C30.4165 25.9961 30.5369 26.1339 30.6201 26.294C30.7033 26.4541 30.7467 26.6319 30.7467 26.8123Z" fill="#D14343"/>
<path fill-rule="evenodd" clip-rule="evenodd" d="M34.125 26.5312C34.125 27.7993 33.6213 29.0154 32.7246 29.9121C31.8279 30.8088 30.6118 31.3125 29.3438 31.3125C28.0757 31.3125 26.8596 30.8088 25.9629 29.9121C25.0662 29.0154 24.5625 27.7993 24.5625 26.5312C24.5625 25.2632 25.0662 24.0471 25.9629 23.1504C26.8596 22.2537 28.0757 21.75 29.3438 21.75C30.6118 21.75 31.8279 22.2537 32.7246 23.1504C33.6213 24.0471 34.125 25.2632 34.125 26.5312ZM33 26.5312C33 27.5009 32.6148 28.4309 31.9291 29.1166C31.2434 29.8023 30.3134 30.1875 29.3438 30.1875C28.3741 30.1875 27.4441 29.8023 26.7584 29.1166C26.0727 28.4309 25.6875 27.5009 25.6875 26.5312C25.6875 25.5616 26.0727 24.6316 26.7584 23.9459C27.4441 23.2602 28.3741 22.875 29.3438 22.875C30.3134 22.875 31.2434 23.2602 31.9291 23.9459C32.6148 24.6316 33 25.5616 33 26.5312Z" fill="#D14343"/>
</svg>
