<svg width="48" height="48" viewBox="0 0 48 48" fill="none" xmlns="http://www.w3.org/2000/svg">
<rect width="48" height="48" rx="12" fill="#FDF2F8"/>
<path d="M14 20.8969C14 19.2406 14.5531 17.6537 15.4656 16.4925C16.375 15.335 17.6169 14.625 19.0188 14.625C20.9581 14.625 22.4625 15.8875 23.4381 17.8762L24 19.0188L24.5613 17.8762C25.5369 15.8875 27.0413 14.625 28.98 14.625C30.3831 14.625 31.625 15.335 32.535 16.4925C33.4475 17.6537 34 19.2406 34 20.8969C34 21.1431 33.9875 21.3881 33.965 21.6306C34.373 21.9484 34.7422 22.313 35.065 22.7169C35.185 22.1263 35.25 21.5194 35.25 20.8969C35.25 18.975 34.6119 17.1131 33.5175 15.7206C32.4206 14.3238 30.84 13.375 28.98 13.375C26.7913 13.375 25.1263 14.6019 24 16.3338C22.875 14.6025 21.2094 13.375 19.0194 13.375C17.16 13.375 15.58 14.3237 14.4825 15.72C13.3888 17.1125 12.75 18.975 12.75 20.8969C12.75 25.1719 15.5844 28.6069 18.2812 30.9181C19.8132 32.2219 21.4782 33.3607 23.2488 34.3156C23.3956 34.3944 23.5435 34.4711 23.6925 34.5456L23.7188 34.5581L23.7256 34.5612L23.7288 34.5631L24.0087 34.6975L24.2863 34.5556L24.2881 34.5544L24.295 34.5513L24.32 34.5375L24.415 34.4875C24.4963 34.4437 24.6144 34.38 24.7638 34.2956C25.0619 34.1269 25.4862 33.8794 25.9944 33.5581C26.3956 33.3043 26.7911 33.0415 27.1806 32.77C26.7634 32.5762 26.3677 32.3391 26 32.0625C25.7625 32.2213 25.5375 32.3675 25.3269 32.5006C24.8897 32.7778 24.4447 33.0424 23.9925 33.2944C23.5425 33.0567 23.0998 32.8056 22.665 32.5413C21.4079 31.7809 20.214 30.9207 19.095 29.9688C16.4781 27.7262 14 24.6094 14 20.8963V20.8969Z" fill="#F9595D"/>
<path d="M30.2509 28.3755C30.4331 28.3753 30.6131 28.3353 30.7782 28.2582C30.9433 28.1812 31.0896 28.069 31.2068 27.9295C31.324 27.79 31.4093 27.6266 31.4567 27.4507C31.5041 27.2747 31.5124 27.0906 31.4812 26.9111C31.4499 26.7316 31.3798 26.5611 31.2758 26.4115C31.1717 26.262 31.0362 26.137 30.8788 26.0453C30.7213 25.9536 30.5457 25.8974 30.3643 25.8807C30.1829 25.864 30 25.8872 29.8284 25.9486L28.3916 24.5117L27.5078 25.3955L29.0203 26.908C28.9885 27.0877 28.9965 27.2723 29.0437 27.4486C29.0909 27.6249 29.1762 27.7888 29.2934 27.9287C29.4107 28.0685 29.5572 28.181 29.7227 28.2582C29.8881 28.3354 30.0684 28.3754 30.2509 28.3755Z" fill="#F9595D"/>
<path fill-rule="evenodd" clip-rule="evenodd" d="M29.9375 32.125C30.6351 32.125 31.326 31.9876 31.9705 31.7206C32.615 31.4536 33.2007 31.0623 33.694 30.569C34.1873 30.0757 34.5786 29.49 34.8456 28.8455C35.1126 28.201 35.25 27.5101 35.25 26.8125C35.25 26.1149 35.1126 25.424 34.8456 24.7795C34.5786 24.135 34.1873 23.5493 33.694 23.056C33.2007 22.5627 32.615 22.1714 31.9705 21.9044C31.326 21.6374 30.6351 21.5 29.9375 21.5C28.5285 21.5 27.1773 22.0597 26.181 23.056C25.1847 24.0523 24.625 25.4035 24.625 26.8125C24.625 28.2215 25.1847 29.5727 26.181 30.569C27.1773 31.5653 28.5285 32.125 29.9375 32.125ZM29.9375 30.875C31.0149 30.875 32.0483 30.447 32.8101 29.6851C33.572 28.9233 34 27.8899 34 26.8125C34 25.7351 33.572 24.7017 32.8101 23.9399C32.0483 23.178 31.0149 22.75 29.9375 22.75C28.8601 22.75 27.8267 23.178 27.0649 23.9399C26.303 24.7017 25.875 25.7351 25.875 26.8125C25.875 27.8899 26.303 28.9233 27.0649 29.6851C27.8267 30.447 28.8601 30.875 29.9375 30.875Z" fill="#F9595D"/>
</svg>
