<svg width="12" height="4" viewBox="0 0 12 4" fill="none" xmlns="http://www.w3.org/2000/svg">
<path fill-rule="evenodd" clip-rule="evenodd" d="M3 2.02246C3 2.85089 2.32843 3.52246 1.5 3.52246C0.671573 3.52246 0 2.85089 0 2.02246C0 1.19403 0.671573 0.522461 1.5 0.522461C2.32843 0.522461 3 1.19403 3 2.02246ZM12 2.02246C12 2.85089 11.3284 3.52246 10.5 3.52246C9.67157 3.52246 9 2.85089 9 2.02246C9 1.19403 9.67157 0.522461 10.5 0.522461C11.3284 0.522461 12 1.19403 12 2.02246ZM6 3.52246C6.82843 3.52246 7.5 2.85089 7.5 2.02246C7.5 1.19403 6.82843 0.522461 6 0.522461C5.17157 0.522461 4.5 1.19403 4.5 2.02246C4.5 2.85089 5.17157 3.52246 6 3.52246Z" fill="#8F95B2"/>
</svg>
