<svg width="40" height="41" viewBox="0 0 40 41" fill="none" xmlns="http://www.w3.org/2000/svg">
<g clip-path="url(#clip0_1565_54196)">
<path d="M18.0488 1.67398L0.827208 18.8814C-0.0986525 19.8065 -0.0986525 21.3007 0.827208 22.2258L18.0488 39.4332C18.9746 40.3583 20.4701 40.3583 21.3959 39.4332L28.6167 32.2184C29.4458 31.3899 29.4458 30.0466 28.6167 29.2181C27.7875 28.3896 26.4431 28.3896 25.614 29.2181L20.14 34.6876C19.9095 34.9179 19.5598 34.9179 19.3293 34.6876L5.57668 20.9463C5.34623 20.716 5.34623 20.3666 5.57668 20.1363L19.3293 6.39497C19.5598 6.16471 19.9095 6.16471 20.14 6.39497L25.614 11.8645C26.4431 12.693 27.7875 12.693 28.6167 11.8645C29.4458 11.036 29.4458 9.69272 28.6167 8.86422L21.3967 1.65019C20.467 0.745108 18.9711 0.752436 18.0488 1.67398Z" fill="url(#paint0_linear_1565_54196)"/>
<path d="M18.0488 1.67398L0.827208 18.8814C-0.0986525 19.8065 -0.0986525 21.3007 0.827208 22.2258L18.0488 39.4332C18.9746 40.3583 20.4701 40.3583 21.3959 39.4332L28.6167 32.2184C29.4458 31.3899 29.4458 30.0466 28.6167 29.2181C27.7875 28.3896 26.4431 28.3896 25.614 29.2181L20.14 34.6876C19.9095 34.9179 19.5598 34.9179 19.3293 34.6876L5.57668 20.9463C5.34623 20.716 5.34623 20.3666 5.57668 20.1363L19.3293 6.39497C19.9031 5.9003 20.8393 4.89835 22.2142 4.66402C23.2359 4.48986 24.353 4.87317 25.5654 5.81395C24.7548 5.00408 23.3653 3.61616 21.3967 1.65019C20.467 0.745108 18.9711 0.752436 18.0488 1.67398Z" fill="url(#paint1_linear_1565_54196)"/>
<path d="M30.2844 27.6184C31.1135 28.4469 32.4579 28.4469 33.2871 27.6184L38.6135 22.2964C39.5393 21.3713 39.5393 19.8771 38.6136 18.9521L33.2408 13.6028C32.4096 12.7753 31.0648 12.7764 30.2352 13.6054C29.406 14.4339 29.406 15.7772 30.2352 16.6057L33.864 20.2315C34.0944 20.4618 34.0944 20.8112 33.864 21.0415L30.2844 24.6182C29.4552 25.4467 29.4552 26.7899 30.2844 27.6184Z" fill="url(#paint2_linear_1565_54196)"/>
<path d="M19.8022 25.2857C22.3702 25.2857 24.452 23.2056 24.452 20.6397C24.452 18.0737 22.3702 15.9937 19.8022 15.9937C17.2341 15.9937 15.1523 18.0737 15.1523 20.6397C15.1523 23.2056 17.2341 25.2857 19.8022 25.2857Z" fill="url(#paint3_linear_1565_54196)"/>
</g>
<defs>
<linearGradient id="paint0_linear_1565_54196" x1="18.2082" y1="0.977052" x2="34.5737" y2="10.9712" gradientUnits="userSpaceOnUse">
<stop stop-color="#4285EB"/>
<stop offset="1" stop-color="#2EC7FF"/>
</linearGradient>
<linearGradient id="paint1_linear_1565_54196" x1="20.4032" y1="0.977051" x2="12.3202" y2="42.7524" gradientUnits="userSpaceOnUse">
<stop stop-color="#29CDFF"/>
<stop offset="0.378601" stop-color="#148EFF"/>
<stop offset="1" stop-color="#0A60FF"/>
</linearGradient>
<linearGradient id="paint2_linear_1565_54196" x1="36.3695" y1="11.0034" x2="25.8522" y2="27.4516" gradientUnits="userSpaceOnUse">
<stop stop-color="#FA816E"/>
<stop offset="0.414726" stop-color="#F74A5C"/>
<stop offset="1" stop-color="#F51D2C"/>
</linearGradient>
<linearGradient id="paint3_linear_1565_54196" x1="21.488" y1="12.6773" x2="17.9886" y2="26.6755" gradientUnits="userSpaceOnUse">
<stop stop-color="#FA8E7D"/>
<stop offset="0.512635" stop-color="#F74A5C"/>
<stop offset="1" stop-color="#F51D2C"/>
</linearGradient>
<clipPath id="clip0_1565_54196">
<rect width="39.405" height="39.405" fill="white" transform="translate(0 0.851074)"/>
</clipPath>
</defs>
</svg>
