<svg width="48" height="48" viewBox="0 0 48 48" fill="none" xmlns="http://www.w3.org/2000/svg">
<rect width="48" height="48" rx="12" fill="#F8FAFC"/>
<path fill-rule="evenodd" clip-rule="evenodd" d="M33.1667 14.2222H14.8333C14.6713 14.2222 14.5158 14.2866 14.4012 14.4012C14.2866 14.5158 14.2222 14.6713 14.2222 14.8333V33.1667C14.2222 33.3287 14.2866 33.4842 14.4012 33.5988C14.5158 33.7134 14.6713 33.7778 14.8333 33.7778H33.1667C33.3287 33.7778 33.4842 33.7134 33.5988 33.5988C33.7134 33.4842 33.7778 33.3287 33.7778 33.1667V14.8333C33.7778 14.6713 33.7134 14.5158 33.5988 14.4012C33.4842 14.2866 33.3287 14.2222 33.1667 14.2222ZM14.8333 13C14.3471 13 13.8808 13.1932 13.537 13.537C13.1932 13.8808 13 14.3471 13 14.8333V33.1667C13 33.6529 13.1932 34.1192 13.537 34.463C13.8808 34.8068 14.3471 35 14.8333 35H33.1667C33.6529 35 34.1192 34.8068 34.463 34.463C34.8068 34.1192 35 33.6529 35 33.1667V14.8333C35 14.3471 34.8068 13.8808 34.463 13.537C34.1192 13.1932 33.6529 13 33.1667 13H14.8333Z" fill="#605BFF"/>
<path fill-rule="evenodd" clip-rule="evenodd" d="M26.2422 16.1233V15.4443H27.4644V16.1233C27.4644 16.2854 27.5288 16.4408 27.6434 16.5554C27.758 16.67 27.9134 16.7344 28.0755 16.7344H30.52C30.8441 16.7344 31.155 16.8632 31.3842 17.0924C31.6134 17.3216 31.7422 17.6325 31.7422 17.9566V23.9999C31.7422 24.162 31.6778 24.3174 31.5632 24.432C31.4486 24.5466 31.2932 24.611 31.1311 24.611C30.969 24.611 30.8136 24.5466 30.699 24.432C30.5843 24.3174 30.52 24.162 30.52 23.9999V17.9566H28.0755C27.5893 17.9566 27.123 17.7635 26.7792 17.4196C26.4353 17.0758 26.2422 16.6095 26.2422 16.1233Z" fill="#605BFF"/>
<path d="M26.3789 18.908C26.3789 18.7459 26.4433 18.5905 26.5579 18.4759C26.6725 18.3613 26.8279 18.2969 26.99 18.2969H28.6192C28.7813 18.2969 28.9368 18.3613 29.0514 18.4759C29.166 18.5905 29.2304 18.7459 29.2304 18.908V21.4881C29.2304 21.6502 29.166 21.8056 29.0514 21.9202C28.9368 22.0348 28.7813 22.0992 28.6192 22.0992H26.9906C26.8286 22.0992 26.6731 22.0348 26.5585 21.9202C26.4439 21.8056 26.3795 21.6502 26.3795 21.4881V18.908H26.3789Z" fill="#605BFF"/>
<path fill-rule="evenodd" clip-rule="evenodd" d="M27.6011 19.5191V20.877H28.0081V19.5191H27.6011ZM26.99 18.2969C26.8279 18.2969 26.6725 18.3613 26.5579 18.4759C26.4433 18.5905 26.3789 18.7459 26.3789 18.908V21.4881C26.3789 21.6502 26.4433 21.8056 26.5579 21.9202C26.6725 22.0348 26.8279 22.0992 26.99 22.0992H28.6192C28.7813 22.0992 28.9368 22.0348 29.0514 21.9202C29.166 21.8056 29.2304 21.6502 29.2304 21.4881V18.908C29.2304 18.7459 29.166 18.5905 29.0514 18.4759C28.9368 18.3613 28.7813 18.2969 28.6192 18.2969H26.9906H26.99Z" fill="#605BFF"/>
<path fill-rule="evenodd" clip-rule="evenodd" d="M27.1914 18.5342V16.8701H28.4136V18.5342H27.1914Z" fill="#605BFF"/>
<path d="M30.6837 23.5562H22.149C22.1298 23.5563 22.1108 23.5525 22.093 23.5452C22.0753 23.5378 22.0592 23.527 22.0457 23.5134L19.1435 20.5911C18.9688 20.4147 18.7608 20.2746 18.5316 20.179C18.3024 20.0834 18.0566 20.0342 17.8082 20.0342C17.5599 20.0342 17.314 20.0834 17.0849 20.179C16.8557 20.2746 16.6477 20.4147 16.473 20.5911C16.1174 20.9501 15.918 21.4349 15.918 21.9401C15.918 22.4454 16.1174 22.9302 16.473 23.2892L20.3266 27.1691C20.3763 27.2191 20.4353 27.2587 20.5003 27.2858C20.5653 27.3128 20.6351 27.3268 20.7055 27.3268H30.6837C31.7165 27.3268 32.5537 26.4828 32.5537 25.4415C32.5537 24.4002 31.7165 23.5562 30.6837 23.5562Z" fill="#605BFF"/>
<path fill-rule="evenodd" clip-rule="evenodd" d="M30.684 24.7778H22.1493C21.9689 24.7777 21.7903 24.742 21.6237 24.6727C21.4572 24.6033 21.306 24.5018 21.1788 24.3738L22.0466 23.5122C22.0735 23.5403 22.1108 23.5549 22.1493 23.5549H30.684C31.7168 23.5549 32.554 24.3995 32.554 25.4408C32.554 26.4822 31.7168 27.3261 30.684 27.3261H20.7058C20.6354 27.3261 20.5657 27.3122 20.5006 27.2851C20.4356 27.2581 20.3766 27.2184 20.3269 27.1684L16.4727 23.2879C16.1173 22.9289 15.918 22.4443 15.918 21.9392C15.918 21.4341 16.1173 20.9494 16.4727 20.5904C16.6474 20.4139 16.8554 20.2737 17.0847 20.1781C17.3139 20.0825 17.5598 20.0332 17.8082 20.0332C18.0566 20.0332 18.3026 20.0825 18.5318 20.1781C18.7611 20.2737 18.9691 20.4139 19.1438 20.5904L22.0466 23.5122L21.1788 24.3738L18.2767 21.4521C18.2155 21.3899 18.1426 21.3406 18.0622 21.3068C17.9818 21.2731 17.8954 21.2558 17.8082 21.2558C17.721 21.2558 17.6347 21.2731 17.5543 21.3068C17.4739 21.3406 17.401 21.3899 17.3398 21.4521C17.2121 21.5822 17.1405 21.7572 17.1405 21.9395C17.1405 22.1218 17.2121 22.2968 17.3398 22.4268L20.9924 26.1039H30.6847C31.0324 26.1039 31.3318 25.8167 31.3318 25.4408C31.3318 25.065 31.0324 24.7778 30.684 24.7778Z" fill="#605BFF"/>
<path d="M16.668 23.3887L17.8902 23.9448V29.4998H16.668V23.3887Z" fill="#605BFF"/>
<path fill-rule="evenodd" clip-rule="evenodd" d="M16.668 23.3887V29.4998H17.8902V23.9448L16.668 23.3887Z" fill="#605BFF"/>
<path d="M29.5 27.0557H30.7222V29.5001H29.5V27.0557Z" fill="#605BFF"/>
<path fill-rule="evenodd" clip-rule="evenodd" d="M29.5 27.0557V29.5001H30.7222V27.0557H29.5Z" fill="#605BFF"/>
<path fill-rule="evenodd" clip-rule="evenodd" d="M32.5564 29.8394H15.4453V28.6172H32.5564V29.8394Z" fill="#605BFF"/>
<path d="M19.7214 30.892C19.7214 31.3331 19.5462 31.7562 19.2342 32.0682C18.9223 32.3801 18.4991 32.5554 18.058 32.5554C17.6168 32.5554 17.1937 32.3801 16.8817 32.0682C16.5698 31.7562 16.3945 31.3331 16.3945 30.892C16.3945 30.4508 16.5698 30.0277 16.8817 29.7157C17.1937 29.4038 17.6168 29.2285 18.058 29.2285C18.4991 29.2285 18.9223 29.4038 19.2342 29.7157C19.5462 30.0277 19.7214 30.4508 19.7214 30.892Z" fill="#605BFF"/>
<path fill-rule="evenodd" clip-rule="evenodd" d="M18.058 31.3332C18.1159 31.3332 18.1733 31.3218 18.2268 31.2996C18.2804 31.2774 18.329 31.2449 18.37 31.204C18.4109 31.163 18.4434 31.1143 18.4656 31.0608C18.4878 31.0073 18.4992 30.9499 18.4992 30.892C18.4992 30.834 18.4878 30.7766 18.4656 30.7231C18.4434 30.6696 18.4109 30.6209 18.37 30.58C18.329 30.539 18.2804 30.5065 18.2268 30.4843C18.1733 30.4621 18.1159 30.4507 18.058 30.4507C17.941 30.4507 17.8287 30.4972 17.746 30.58C17.6632 30.6627 17.6168 30.7749 17.6168 30.892C17.6168 31.009 17.6632 31.1212 17.746 31.204C17.8287 31.2867 17.941 31.3332 18.058 31.3332ZM18.058 32.5554C18.4991 32.5554 18.9223 32.3801 19.2342 32.0682C19.5462 31.7562 19.7214 31.3331 19.7214 30.892C19.7214 30.4508 19.5462 30.0277 19.2342 29.7157C18.9223 29.4038 18.4991 29.2285 18.058 29.2285C17.6168 29.2285 17.1937 29.4038 16.8817 29.7157C16.5698 30.0277 16.3945 30.4508 16.3945 30.892C16.3945 31.3331 16.5698 31.7562 16.8817 32.0682C17.1937 32.3801 17.6168 32.5554 18.058 32.5554Z" fill="#605BFF"/>
<path d="M31.6042 30.892C31.6042 31.3331 31.429 31.7562 31.117 32.0682C30.8051 32.3801 30.382 32.5554 29.9408 32.5554C29.4996 32.5554 29.0765 32.3801 28.7646 32.0682C28.4526 31.7562 28.2773 31.3331 28.2773 30.892C28.2773 30.4508 28.4526 30.0277 28.7646 29.7157C29.0765 29.4038 29.4996 29.2285 29.9408 29.2285C30.382 29.2285 30.8051 29.4038 31.117 29.7157C31.429 30.0277 31.6042 30.4508 31.6042 30.892Z" fill="#605BFF"/>
<path fill-rule="evenodd" clip-rule="evenodd" d="M29.9446 31.3334C30.0025 31.3334 30.0599 31.322 30.1134 31.2998C30.167 31.2776 30.2156 31.2451 30.2566 31.2042C30.2975 31.1632 30.33 31.1146 30.3522 31.061C30.3744 31.0075 30.3858 30.9501 30.3858 30.8922C30.3858 30.8342 30.3744 30.7769 30.3522 30.7233C30.33 30.6698 30.2975 30.6212 30.2566 30.5802C30.2156 30.5392 30.167 30.5067 30.1134 30.4845C30.0599 30.4624 30.0025 30.4509 29.9446 30.4509C29.8276 30.4509 29.7153 30.4974 29.6326 30.5802C29.5498 30.6629 29.5034 30.7752 29.5034 30.8922C29.5034 31.0092 29.5498 31.1214 29.6326 31.2042C29.7153 31.2869 29.8276 31.3334 29.9446 31.3334ZM29.9446 32.5556C30.3858 32.5556 30.8089 32.3804 31.1208 32.0684C31.4328 31.7564 31.608 31.3333 31.608 30.8922C31.608 30.451 31.4328 30.0279 31.1208 29.7159C30.8089 29.404 30.3858 29.2287 29.9446 29.2287C29.5034 29.2287 29.0803 29.404 28.7683 29.7159C28.4564 30.0279 28.2811 30.451 28.2811 30.8922C28.2811 31.3333 28.4564 31.7564 28.7683 32.0684C29.0803 32.3804 29.5034 32.5556 29.9446 32.5556ZM18.5663 19.6752C18.9281 19.3139 19.4186 19.1111 19.9299 19.1113C20.4413 19.1116 20.9316 19.3148 21.2931 19.6764L22.1486 20.532C22.3277 20.711 22.4698 20.9236 22.5667 21.1576C22.6636 21.3915 22.7134 21.6423 22.7133 21.8955C22.7133 22.1488 22.6633 22.3995 22.5663 22.6334C22.4693 22.8673 22.3272 23.0798 22.148 23.2588L21.4489 23.9573L20.5848 23.0926L21.2833 22.3941C21.4156 22.2617 21.4899 22.0822 21.4899 21.8951C21.4899 21.708 21.4156 21.5285 21.2833 21.3961L20.4277 20.5406C20.2954 20.4083 20.116 20.334 19.9289 20.3339C19.7418 20.3338 19.5623 20.4079 19.4298 20.5399L18.7313 21.2378L17.8672 20.3731L18.5657 19.6752H18.5663Z" fill="#605BFF"/>
</svg>
