<svg width="48" height="48" viewBox="0 0 48 48" fill="none" xmlns="http://www.w3.org/2000/svg">
<rect width="48" height="48" rx="12" fill="#EFF6FF"/>
<path d="M24.0001 22C26.2101 22 28.0001 20.21 28.0001 18C28.0001 15.79 26.2101 14 24.0001 14C21.7901 14 20.0001 15.79 20.0001 18C20.0001 20.21 21.7901 22 24.0001 22ZM24.0001 16C25.1001 16 26.0001 16.9 26.0001 18C26.0001 19.1 25.1001 20 24.0001 20C22.9001 20 22.0001 19.1 22.0001 18C22.0001 16.9 22.9001 16 24.0001 16ZM30.3901 24.56C28.7101 23.7 26.5301 23 24.0001 23C21.4701 23 19.2901 23.7 17.6101 24.56C17.1221 24.8113 16.7134 25.1929 16.4292 25.6625C16.145 26.132 15.9964 26.6712 16.0001 27.22V34H18.0001V27.22C18.0001 26.84 18.2001 26.5 18.5001 26.34C19.7101 25.73 21.6301 25 24.0001 25C24.7601 25 25.4701 25.07 26.1301 25.2L24.5801 28.5H21.7501C20.2301 28.5 19.0001 29.73 19.0001 31.25C19.0001 32.77 20.2301 34 21.7501 34H30.0001C31.1001 34 32.0001 33.1 32.0001 32V27.22C32.0001 26.1 31.3901 25.07 30.3901 24.56ZM22.9401 32H21.7501C21.3401 32 21.0001 31.66 21.0001 31.25C21.0001 30.84 21.3401 30.5 21.7501 30.5H23.6401L22.9401 32ZM30.0001 32H25.1501L28.0901 25.73C28.6301 25.93 29.1001 26.14 29.5001 26.34C29.8001 26.5 30.0001 26.84 30.0001 27.22V32Z" fill="#0062FF"/>
</svg>
