<svg width="16" height="16" viewBox="0 0 16 16" fill="none" xmlns="http://www.w3.org/2000/svg">
<path fill-rule="evenodd" clip-rule="evenodd" d="M15.2273 14.4187C14.7944 13.4305 12.7049 12.7716 11.312 12.1599C9.91906 11.5481 10.1073 11.1716 10.0602 10.6634C10.0508 10.5975 10.0508 10.5222 10.0508 10.4469C10.5308 10.0234 10.9167 9.43988 11.1708 8.77164C11.1708 8.77164 11.1802 8.73399 11.1897 8.72458C11.2461 8.58341 11.2932 8.42341 11.3308 8.27282C11.6508 8.20693 11.8391 7.8587 11.9049 7.5387C11.9802 7.40693 12.1214 7.08693 12.0932 6.71988C12.0461 6.24929 11.8579 6.03282 11.6508 5.94811C11.6508 5.91988 11.6508 5.89164 11.6508 5.86341C11.6508 5.27046 11.5944 4.40458 11.4908 3.83988C11.472 3.67988 11.4344 3.52929 11.3873 3.36929C11.1802 2.68223 10.7567 2.05164 10.1826 1.6187C9.58024 1.17635 8.74259 0.931641 7.99906 0.931641C7.25553 0.931641 6.41789 1.16693 5.82495 1.6187C5.25083 2.06105 4.8273 2.68223 4.62024 3.36929C4.57318 3.52929 4.53553 3.67988 4.51671 3.83988C4.40377 4.40458 4.35671 5.26105 4.35671 5.86341C4.35671 5.89164 4.35671 5.91046 4.35671 5.9387C4.13083 6.02341 3.93318 6.23988 3.88612 6.71988C3.85789 7.07752 4.00848 7.39752 4.07436 7.52929C4.14965 7.8587 4.33789 8.20693 4.6673 8.26341C4.70495 8.42341 4.75201 8.57399 4.80848 8.72458C4.80848 8.73399 4.81789 8.74341 4.81789 8.75282L4.8273 8.76223C5.08142 9.43988 5.48612 10.0328 5.97553 10.4563C5.97553 10.5222 5.96612 10.5881 5.96612 10.654C5.91906 11.1622 6.06024 11.5387 4.67671 12.1505C3.28377 12.7622 1.19436 13.4211 0.761417 14.4093C0.328476 15.3975 0.507299 15.9811 0.507299 15.9811H15.4908C15.4814 15.9905 15.6602 15.4069 15.2273 14.4187Z" fill="#8F95B2"/>
</svg>
