<svg width="26" height="20" viewBox="0 0 26 20" fill="none" xmlns="http://www.w3.org/2000/svg">
<path d="M5.125 5.1875C5.125 4.37527 5.44766 3.59632 6.02199 3.02199C6.59632 2.44766 7.37528 2.125 8.1875 2.125C8.99973 2.125 9.77868 2.44766 10.353 3.02199C10.9273 3.59632 11.25 4.37527 11.25 5.1875C11.25 5.99973 10.9273 6.77868 10.353 7.35301C9.77868 7.92734 8.99973 8.25 8.1875 8.25C7.37528 8.25 6.59632 7.92734 6.02199 7.35301C5.44766 6.77868 5.125 5.99973 5.125 5.1875ZM8.1875 0.375C6.91115 0.375 5.68707 0.88203 4.78455 1.78455C3.88203 2.68707 3.375 3.91115 3.375 5.1875C3.375 6.46385 3.88203 7.68793 4.78455 8.59045C5.68707 9.49297 6.91115 10 8.1875 10C9.46385 10 10.6879 9.49297 11.5905 8.59045C12.493 7.68793 13 6.46385 13 5.1875C13 3.91115 12.493 2.68707 11.5905 1.78455C10.6879 0.88203 9.46385 0.375 8.1875 0.375ZM17.375 6.5C17.375 6.03587 17.5594 5.59075 17.8876 5.26256C18.2158 4.93437 18.6609 4.75 19.125 4.75C19.5891 4.75 20.0342 4.93437 20.3624 5.26256C20.6906 5.59075 20.875 6.03587 20.875 6.5C20.875 6.96413 20.6906 7.40925 20.3624 7.73744C20.0342 8.06563 19.5891 8.25 19.125 8.25C18.6609 8.25 18.2158 8.06563 17.8876 7.73744C17.5594 7.40925 17.375 6.96413 17.375 6.5ZM19.125 3C18.1967 3 17.3065 3.36875 16.6501 4.02513C15.9938 4.6815 15.625 5.57174 15.625 6.5C15.625 7.42826 15.9938 8.3185 16.6501 8.97487C17.3065 9.63125 18.1967 10 19.125 10C20.0533 10 20.9435 9.63125 21.5999 8.97487C22.2563 8.3185 22.625 7.42826 22.625 6.5C22.625 5.57174 22.2563 4.6815 21.5999 4.02513C20.9435 3.36875 20.0533 3 19.125 3ZM0.75 14.375C0.75 13.6788 1.02656 13.0111 1.51884 12.5188C2.01113 12.0266 2.67881 11.75 3.375 11.75H13C13.6962 11.75 14.3639 12.0266 14.8562 12.5188C15.3484 13.0111 15.625 13.6788 15.625 14.375V14.5728C15.6233 14.6544 15.6175 14.7358 15.6075 14.8169C15.59 14.9682 15.5576 15.1739 15.4938 15.4171C15.3257 16.0588 15.0282 16.6594 14.6196 17.182C13.5959 18.4963 11.67 19.625 8.1875 19.625C4.705 19.625 2.78 18.4963 1.75538 17.182C1.3465 16.6595 1.04873 16.0589 0.880375 15.4171C0.813541 15.1597 0.770773 14.8967 0.752625 14.6314C0.751779 14.6118 0.751196 14.5923 0.750875 14.5728V14.5526L0.75 14.5456V14.375ZM2.5 14.5307V14.5413C2.51213 14.6884 2.53701 14.8342 2.57438 14.977C2.65313 15.2815 2.81325 15.6927 3.13525 16.1066C3.75213 16.8976 5.1075 17.875 8.1875 17.875C11.2675 17.875 12.6238 16.8976 13.2398 16.1075C13.5014 15.7727 13.6919 15.388 13.7998 14.977C13.8374 14.8342 13.8626 14.6884 13.875 14.5413L13.8759 14.5307V14.375C13.8759 14.1429 13.7837 13.9204 13.6196 13.7563C13.4555 13.5922 13.2329 13.5 13.0009 13.5H3.375C3.14294 13.5 2.92038 13.5922 2.75628 13.7563C2.59219 13.9204 2.5 14.1429 2.5 14.375V14.5307ZM16.0424 17.4305C16.8561 17.707 17.8685 17.875 19.125 17.875C21.9259 17.875 23.5175 17.0411 24.3864 16.0156C24.809 15.5169 25.0251 15.0111 25.1345 14.6226C25.1935 14.4143 25.2313 14.2006 25.2474 13.9848L25.2483 13.9532L25.2491 13.934V13.9008C25.2492 13.6183 25.1937 13.3385 25.0856 13.0776C24.9776 12.8166 24.8192 12.5794 24.6194 12.3797C24.4197 12.1799 24.1826 12.0215 23.9216 11.9135C23.6606 11.8054 23.3808 11.7499 23.0984 11.75H15.933C16.3705 12.2391 16.6881 12.8376 16.8386 13.5H23.0984C23.3171 13.5 23.4939 13.6741 23.4991 13.8902C23.4905 13.9773 23.4741 14.0634 23.4501 14.1475C23.3959 14.34 23.2839 14.6095 23.0503 14.8851C22.6075 15.4093 21.5741 16.125 19.125 16.125C18.1056 16.125 17.3321 16.0007 16.7441 15.8187C16.5885 16.3868 16.3521 16.9296 16.0424 17.4305Z" fill="#474D66"/>
</svg>
