<svg width="21" height="22" viewBox="0 0 21 22" fill="none" xmlns="http://www.w3.org/2000/svg">
<path d="M10.2515 8.1787C12.2338 8.1787 13.8408 6.57169 13.8408 4.58935C13.8408 2.60701 12.2338 1 10.2515 1C8.26912 1 6.66211 2.60701 6.66211 4.58935C6.66211 6.57169 8.26912 8.1787 10.2515 8.1787Z" stroke="#474D66" stroke-width="1.66661" stroke-linecap="round" stroke-linejoin="round"/>
<path d="M0 19.9738C0 15.4425 4.13237 11.7695 9.22976 11.7695" stroke="#474D66" stroke-width="1.66661" stroke-linecap="round" stroke-linejoin="round"/>
<path d="M15.3844 20.9993C17.9331 20.9993 19.9993 18.9331 19.9993 16.3844C19.9993 13.8357 17.9331 11.7695 15.3844 11.7695C12.8357 11.7695 10.7695 13.8357 10.7695 16.3844C10.7695 18.9331 12.8357 20.9993 15.3844 20.9993Z" stroke="#474D66" stroke-width="1.66661"/>
<path d="M14.8652 14.8457V16.8968H16.9163" stroke="#474D66" stroke-width="0.833304" stroke-linecap="round" stroke-linejoin="round"/>
</svg>
