<svg width="20" height="20" viewBox="0 0 20 20" fill="none" xmlns="http://www.w3.org/2000/svg">
<path fill-rule="evenodd" clip-rule="evenodd" d="M17.4883 8.73828H5.51328L9.62578 4.62578C9.85078 4.40078 9.98828 4.08828 9.98828 3.73828C9.98828 3.05078 9.42578 2.48828 8.73828 2.48828C8.38828 2.48828 8.07578 2.62578 7.85078 2.85078L1.60078 9.10078C1.37578 9.33828 1.23828 9.65078 1.23828 9.98828C1.23828 10.3258 1.37578 10.6508 1.60078 10.8758L7.85078 17.1258C8.07578 17.3508 8.38828 17.4883 8.73828 17.4883C9.42578 17.4883 9.98828 16.9258 9.98828 16.2383C9.98828 15.8883 9.85078 15.5758 9.62578 15.3508L5.51328 11.2383H17.5008C18.1883 11.2383 18.7508 10.6758 18.7508 9.98828C18.7508 9.30078 18.1758 8.73828 17.4883 8.73828Z" fill="#474D66"/>
</svg>
