<svg width="18" height="18" viewBox="0 0 18 18" fill="none" xmlns="http://www.w3.org/2000/svg">
<g clip-path="url(#clip0_4067_58045)">
<path d="M9.00039 8.50004C9.73833 8.50103 10.46 8.28311 11.074 7.87385C11.6881 7.46459 12.1669 6.88239 12.45 6.20091C12.7331 5.51943 12.8077 4.7693 12.6643 4.04542C12.521 3.32154 12.1661 2.65645 11.6447 2.1343C11.1232 1.61215 10.4586 1.25641 9.73492 1.11208C9.01123 0.96775 8.261 1.04132 7.57914 1.32349C6.89728 1.60566 6.31444 2.08374 5.90436 2.69724C5.49428 3.31075 5.27539 4.0321 5.27539 4.77004C5.27539 5.75843 5.66768 6.70641 6.36611 7.40578C7.06454 8.10515 8.012 8.49871 9.00039 8.50004ZM9.00039 2.03504C9.54076 2.03405 10.0693 2.19345 10.519 2.49304C10.9687 2.79264 11.3194 3.21895 11.5266 3.718C11.7339 4.21705 11.7884 4.76637 11.6832 5.2964C11.578 5.82644 11.3179 6.31334 10.9358 6.69543C10.5537 7.07753 10.0668 7.33764 9.53676 7.44282C9.00672 7.548 8.4574 7.49351 7.95835 7.28627C7.45931 7.07902 7.03299 6.72833 6.73339 6.27862C6.4338 5.82891 6.2744 5.30041 6.27539 4.76004C6.27671 4.03773 6.56423 3.34538 7.07498 2.83463C7.58574 2.32388 8.27808 2.03636 9.00039 2.03504Z" fill="#474D66"/>
<path d="M3.00031 15.9451V12.8851C3.77225 12.0749 4.70434 11.4342 5.7373 11.0038C6.77027 10.5734 7.88149 10.3627 9.00031 10.3851C10.5316 10.3644 12.0388 10.7676 13.3553 11.5501L14.0303 10.7951C12.5252 9.84705 10.779 9.35236 9.00031 9.37006C7.69892 9.3369 6.40623 9.59126 5.21441 10.115C4.0226 10.6387 2.961 11.419 2.10531 12.4001C2.03862 12.486 2.00175 12.5913 2.00031 12.7001V15.9451C1.99359 16.2174 2.09504 16.4813 2.28246 16.6791C2.46987 16.8768 2.72799 16.9922 3.00031 17.0001H9.19531L8.24531 16.0001L3.00031 15.9451Z" fill="#474D66"/>
<path d="M15.0004 15.9446V15.9996H13.4254L12.5254 16.9996H15.0004C15.2692 16.9918 15.5243 16.8791 15.7111 16.6857C15.898 16.4923 16.0018 16.2335 16.0004 15.9646V13.0996L15.0004 14.2146V15.9446Z" fill="#474D66"/>
<path d="M17.38 9.31012C17.2811 9.22211 17.1514 9.1769 17.0192 9.1844C16.8871 9.1919 16.7633 9.25149 16.675 9.35012L10.865 15.8501L8.26502 13.0551C8.22234 13.0052 8.17025 12.9642 8.11172 12.9344C8.05319 12.9047 7.98937 12.8867 7.92391 12.8816C7.85844 12.8765 7.79261 12.8843 7.73017 12.9047C7.66774 12.925 7.60992 12.9574 7.56002 13.0001C7.51114 13.0446 7.47155 13.0983 7.44356 13.1582C7.41557 13.218 7.39972 13.2828 7.39693 13.3489C7.39414 13.4149 7.40447 13.4808 7.42731 13.5428C7.45015 13.6048 7.48506 13.6617 7.53002 13.7101L10.875 17.3101L17.42 10.0001C17.5035 9.90208 17.5459 9.77563 17.5384 9.6471C17.531 9.51857 17.4742 9.39786 17.38 9.31012Z" fill="#474D66"/>
</g>
<defs>
<clipPath id="clip0_4067_58045">
<rect width="18" height="18" fill="white"/>
</clipPath>
</defs>
</svg>
