<svg width="12" height="12" viewBox="0 0 12 12" fill="none" xmlns="http://www.w3.org/2000/svg">
<path d="M2.66797 12C2.3013 12 1.98752 11.8696 1.72664 11.6087C1.4653 11.3473 1.33464 11.0333 1.33464 10.6667V2C1.14575 2 0.987302 1.93622 0.859302 1.80867C0.731747 1.68067 0.667969 1.52222 0.667969 1.33333C0.667969 1.14444 0.731747 0.986 0.859302 0.858C0.987302 0.730445 1.14575 0.666667 1.33464 0.666667H4.0013C4.0013 0.477778 4.0653 0.319333 4.1933 0.191333C4.32086 0.0637777 4.47908 0 4.66797 0H7.33463C7.52352 0 7.68197 0.0637777 7.80997 0.191333C7.93752 0.319333 8.0013 0.477778 8.0013 0.666667H10.668C10.8569 0.666667 11.0151 0.730445 11.1426 0.858C11.2706 0.986 11.3346 1.14444 11.3346 1.33333C11.3346 1.52222 11.2706 1.68067 11.1426 1.80867C11.0151 1.93622 10.8569 2 10.668 2V10.6667C10.668 11.0333 10.5375 11.3473 10.2766 11.6087C10.0153 11.8696 9.7013 12 9.33463 12H2.66797ZM2.66797 2V10.6667H9.33463V2H2.66797ZM4.0013 8.66667C4.0013 8.85556 4.0653 9.01378 4.1933 9.14133C4.32086 9.26933 4.47908 9.33333 4.66797 9.33333C4.85686 9.33333 5.0153 9.26933 5.1433 9.14133C5.27086 9.01378 5.33464 8.85556 5.33464 8.66667V4C5.33464 3.81111 5.27086 3.65267 5.1433 3.52467C5.0153 3.39711 4.85686 3.33333 4.66797 3.33333C4.47908 3.33333 4.32086 3.39711 4.1933 3.52467C4.0653 3.65267 4.0013 3.81111 4.0013 4V8.66667ZM6.66797 8.66667C6.66797 8.85556 6.73197 9.01378 6.85997 9.14133C6.98752 9.26933 7.14575 9.33333 7.33463 9.33333C7.52352 9.33333 7.68197 9.26933 7.80997 9.14133C7.93752 9.01378 8.0013 8.85556 8.0013 8.66667V4C8.0013 3.81111 7.93752 3.65267 7.80997 3.52467C7.68197 3.39711 7.52352 3.33333 7.33463 3.33333C7.14575 3.33333 6.98752 3.39711 6.85997 3.52467C6.73197 3.65267 6.66797 3.81111 6.66797 4V8.66667Z" fill="#D14343"/>
</svg>
