<svg width="12" height="12" viewBox="0 0 12 12" fill="none" xmlns="http://www.w3.org/2000/svg">
<path fill-rule="evenodd" clip-rule="evenodd" d="M6.00187 5.25201C5.59002 5.25201 5.25304 5.59039 5.25304 6.00396C5.25304 6.41753 5.59002 6.7559 6.00187 6.7559C6.41373 6.7559 6.7507 6.41753 6.7507 6.00396C6.7507 5.59039 6.41373 5.25201 6.00187 5.25201ZM11.9925 5.9814C11.9925 5.97388 11.9925 5.97388 11.9925 5.96636V5.95884C11.9925 5.95132 11.9925 5.95132 11.9925 5.9438C11.9925 5.93628 11.9925 5.93628 11.9925 5.92876C11.9775 5.82349 11.9326 5.73326 11.8652 5.65806C11.4833 5.15426 11.0265 4.71061 10.5622 4.30456C9.5663 3.42478 8.42808 2.68787 7.17005 2.39461C6.43619 2.21415 5.70983 2.20663 4.97598 2.3495C4.30952 2.48485 3.67301 2.75555 3.06646 3.09392C2.13042 3.62781 1.26927 4.35719 0.520437 5.17682C0.385647 5.33472 0.250858 5.48511 0.123557 5.65054C-0.0411856 5.86861 -0.0411856 6.13179 0.123557 6.34985C0.50546 6.85366 0.962247 7.2973 1.42652 7.70336C2.42246 8.58313 3.56069 9.32004 4.81872 9.6133C5.54509 9.78625 6.27894 9.79377 7.01279 9.64338C7.67925 9.50803 8.31576 9.23733 8.92231 8.89895C9.85835 8.36507 10.7195 7.63568 11.4683 6.81606C11.6031 6.66567 11.7454 6.50776 11.8727 6.34233C11.9401 6.26714 11.985 6.16939 12 6.07163C12 6.06411 12 6.06411 12 6.05659C12 6.04907 12 6.04907 12 6.04155V6.03403C12 6.02652 12 6.02652 12 6.019C12 6.01148 12 6.00396 12 5.99644C12 5.98892 11.9925 5.98892 11.9925 5.9814ZM6.00187 8.2598C4.75881 8.2598 3.75538 7.25219 3.75538 6.00396C3.75538 4.75573 4.75881 3.74812 6.00187 3.74812C7.24493 3.74812 8.24836 4.75573 8.24836 6.00396C8.24836 7.25219 7.24493 8.2598 6.00187 8.2598Z" fill="#7D8FB3"/>
</svg>
