<svg width="30" height="30" viewBox="0 0 30 30" fill="none" xmlns="http://www.w3.org/2000/svg">
<path d="M25.1395 26.5591C27.233 24.582 28.5595 21.8041 28.5595 18.7038C28.5595 14.884 26.5533 11.4387 23.4338 9.50367L26.9288 3.45398L26.3798 3.13758L27.2419 1.63852L24.982 0.333984L24.1181 1.8307L23.5402 1.49695L14.948 16.3807L15.6984 16.8138L14.633 18.657L16.5211 19.7473L17.587 17.9032L18.3366 18.3363L21.9497 12.079C23.0636 12.7889 23.9807 13.7681 24.6164 14.926C25.2521 16.084 25.5858 17.3834 25.5867 18.7043C25.5867 23.0355 22.0608 26.5596 17.7291 26.5596H11.3981V29.5338H29.2191V26.5596H25.1405L25.1395 26.5591ZM9.32016 3.68836V1.32727H9.61078L9.60656 0.761016H6.95859L6.96281 1.32727H7.275V3.68836H5.29922V1.32727H5.58891L5.58563 0.761016H2.93531L2.94047 1.32727H3.25266V3.68836H0.351562V15.5154H12.1964V3.68836H9.32109H9.32016ZM11.1933 14.5141H1.35328V4.68961H3.25219V12.2459C3.25219 12.8177 3.71953 13.2823 4.28344 13.2823C4.84828 13.2799 5.29875 12.8168 5.29875 12.2459V4.68961H7.27453V12.2459C7.27453 12.8177 7.74234 13.2823 8.30625 13.2823C8.87109 13.2799 9.32156 12.8168 9.32063 12.2459V4.68961H11.1933V14.5141Z" fill="#474D66"/>
</svg>
