<svg width="6" height="9" viewBox="0 0 6 9" fill="none" xmlns="http://www.w3.org/2000/svg">
<mask id="path-1-inside-1_6192_58389" fill="white">
<path d="M1.20564 0.864258L5.03845 4.69707L1.20564 8.52987L0.392578 7.71681L3.41232 4.69707L0.392578 1.67732L1.20564 0.864258Z"/>
</mask>
<path d="M1.20564 0.864258L5.03845 4.69707L1.20564 8.52987L0.392578 7.71681L3.41232 4.69707L0.392578 1.67732L1.20564 0.864258Z" fill="white"/>
<path d="M5.03845 4.69707L5.85151 5.51013L6.66457 4.69707L5.85151 3.884L5.03845 4.69707ZM1.20564 0.864258L2.0187 0.0511966L1.20564 -0.761864L0.392579 0.0511965L1.20564 0.864258ZM1.20564 8.52987L0.392579 9.34293L1.20564 10.156L2.0187 9.34293L1.20564 8.52987ZM0.392578 1.67732L-0.420483 0.864258L-1.23354 1.67732L-0.420483 2.49038L0.392578 1.67732ZM0.392578 7.71681L-0.420483 6.90375L-1.23354 7.71681L-0.420483 8.52987L0.392578 7.71681ZM3.41232 4.69707L4.22539 5.51013L5.03845 4.69707L4.22539 3.884L3.41232 4.69707ZM5.85151 3.884L2.0187 0.0511966L0.392578 1.67732L4.22539 5.51013L5.85151 3.884ZM2.0187 9.34293L5.85151 5.51013L4.22539 3.884L0.392578 7.71681L2.0187 9.34293ZM0.392579 0.0511965L-0.420483 0.864258L1.20564 2.49038L2.0187 1.67732L0.392579 0.0511965ZM-0.420483 8.52987L0.392579 9.34293L2.0187 7.71681L1.20564 6.90375L-0.420483 8.52987ZM2.59926 3.884L-0.420483 6.90375L1.20564 8.52987L4.22539 5.51013L2.59926 3.884ZM-0.420483 2.49038L2.59926 5.51013L4.22539 3.884L1.20564 0.864258L-0.420483 2.49038Z" fill="black" fill-opacity="0.25" mask="url(#path-1-inside-1_6192_58389)"/>
</svg>
