<svg width="22" height="30" viewBox="0 0 22 30" fill="none" xmlns="http://www.w3.org/2000/svg">
<path d="M10.875 4.125C9.91359 4.125 8.99156 4.50692 8.31174 5.18674C7.63192 5.86656 7.25 6.78859 7.25 7.75C7.25 8.71141 7.63192 9.63344 8.31174 10.3133C8.99156 10.9931 9.91359 11.375 10.875 11.375C11.8364 11.375 12.7584 10.9931 13.4383 10.3133C14.1181 9.63344 14.5 8.71141 14.5 7.75C14.5 6.78859 14.1181 5.86656 13.4383 5.18674C12.7584 4.50692 11.8364 4.125 10.875 4.125ZM9.0625 7.75C9.0625 7.2693 9.25346 6.80828 9.59337 6.46837C9.93328 6.12846 10.3943 5.9375 10.875 5.9375C11.3557 5.9375 11.8167 6.12846 12.1566 6.46837C12.4965 6.80828 12.6875 7.2693 12.6875 7.75C12.6875 8.2307 12.4965 8.69172 12.1566 9.03163C11.8167 9.37154 11.3557 9.5625 10.875 9.5625C10.3943 9.5625 9.93328 9.37154 9.59337 9.03163C9.25346 8.69172 9.0625 8.2307 9.0625 7.75ZM4.53125 23.1562C4.2909 23.1562 4.06039 23.2517 3.89043 23.4217C3.72048 23.5916 3.625 23.8221 3.625 24.0625C3.625 24.3029 3.72048 24.5334 3.89043 24.7033C4.06039 24.8733 4.2909 24.9688 4.53125 24.9688H17.2188C17.4591 24.9688 17.6896 24.8733 17.8596 24.7033C18.0295 24.5334 18.125 24.3029 18.125 24.0625C18.125 23.8221 18.0295 23.5916 17.8596 23.4217C17.6896 23.2517 17.4591 23.1562 17.2188 23.1562H4.53125ZM0 4.125C0 3.16359 0.381918 2.24156 1.06174 1.56174C1.74156 0.881918 2.66359 0.5 3.625 0.5H18.125C19.0864 0.5 20.0084 0.881918 20.6883 1.56174C21.3681 2.24156 21.75 3.16359 21.75 4.125V25.875C21.75 26.8364 21.3681 27.7584 20.6883 28.4383C20.0084 29.1181 19.0864 29.5 18.125 29.5H3.625C2.66359 29.5 1.74156 29.1181 1.06174 28.4383C0.381918 27.7584 0 26.8364 0 25.875V4.125ZM18.125 2.3125H3.625C3.14429 2.3125 2.68328 2.50346 2.34337 2.84337C2.00346 3.18328 1.8125 3.64429 1.8125 4.125V18.625H5.4375V15C5.4375 14.5193 5.62846 14.0583 5.96837 13.7184C6.30828 13.3785 6.7693 13.1875 7.25 13.1875H14.5C14.9807 13.1875 15.4417 13.3785 15.7816 13.7184C16.1215 14.0583 16.3125 14.5193 16.3125 15V18.625H19.9375V4.125C19.9375 3.64429 19.7465 3.18328 19.4066 2.84337C19.0667 2.50346 18.6057 2.3125 18.125 2.3125ZM14.5 15H7.25V18.625H14.5V15ZM1.8125 20.4375V25.875C1.8125 26.3557 2.00346 26.8167 2.34337 27.1566C2.68328 27.4965 3.14429 27.6875 3.625 27.6875H18.125C18.6057 27.6875 19.0667 27.4965 19.4066 27.1566C19.7465 26.8167 19.9375 26.3557 19.9375 25.875V20.4375H1.8125Z" fill="#474D66"/>
</svg>
