<svg width="30" height="30" viewBox="0 0 30 30" fill="none" xmlns="http://www.w3.org/2000/svg">
<path d="M17.0854 22.375H12.4146C12.219 22.375 12.0314 22.2973 11.8931 22.159C11.7548 22.0207 11.6771 21.8331 11.6771 21.6375V18.8104C11.6771 18.6148 11.5994 18.4272 11.4611 18.2889C11.3228 18.1506 11.1352 18.0729 10.9396 18.0729H8.1125C7.9169 18.0729 7.72932 17.9952 7.59101 17.8569C7.4527 17.7186 7.375 17.531 7.375 17.3354V12.6646C7.375 12.469 7.4527 12.2814 7.59101 12.1431C7.72932 12.0048 7.9169 11.9271 8.1125 11.9271H10.9396C11.1352 11.9271 11.3228 11.8494 11.4611 11.7111C11.5994 11.5728 11.6771 11.3852 11.6771 11.1896V8.3625C11.6771 8.1669 11.7548 7.97932 11.8931 7.84101C12.0314 7.7027 12.219 7.625 12.4146 7.625H17.0854C17.281 7.625 17.4686 7.7027 17.6069 7.84101C17.7452 7.97932 17.8229 8.1669 17.8229 8.3625V11.1896C17.8229 11.3852 17.9006 11.5728 18.0389 11.7111C18.1772 11.8494 18.3648 11.9271 18.5604 11.9271H21.3875C21.5831 11.9271 21.7707 12.0048 21.909 12.1431C22.0473 12.2814 22.125 12.469 22.125 12.6646V17.3354C22.125 17.531 22.0473 17.7186 21.909 17.8569C21.7707 17.9952 21.5831 18.0729 21.3875 18.0729H18.5604C18.3648 18.0729 18.1772 18.1506 18.0389 18.2889C17.9006 18.4272 17.8229 18.6148 17.8229 18.8104V21.6375C17.8229 21.8331 17.7452 22.0207 17.6069 22.159C17.4686 22.2973 17.281 22.375 17.0854 22.375V22.375Z" stroke="#474D66" stroke-width="1.84375"/>
<path d="M14.7526 27.2943C21.5413 27.2943 27.0443 21.7913 27.0443 15.0026C27.0443 8.21392 21.5413 2.71094 14.7526 2.71094C7.96392 2.71094 2.46094 8.21392 2.46094 15.0026C2.46094 21.7913 7.96392 27.2943 14.7526 27.2943Z" stroke="#474D66" stroke-width="1.84375" stroke-linecap="round" stroke-linejoin="round"/>
</svg>
