<svg width="126" height="80" viewBox="0 0 126 80" fill="none" xmlns="http://www.w3.org/2000/svg">
<path d="M96 36L88.68 27.66L89.7 16.62L78.87 14.16L73.2 4.62L63 9L52.8 4.62L47.13 14.16L36.3 16.59L37.32 27.63L30 36L37.32 44.34L36.3 55.41L47.13 57.87L52.8 67.41L63 63L73.2 67.38L78.87 57.84L89.7 55.38L88.68 44.34L96 36ZM57 51L45 39L49.23 34.77L57 42.51L76.77 22.74L81 27L57 51Z" fill="url(#paint0_linear_3001_54381)"/>
<path opacity="0.5" d="M9.60511 4.77506L10 5.28352L10.3949 4.77506L12.9134 1.53221L12.7619 5.63712L12.7382 6.27927L13.3665 6.14443L17.3817 5.28268L14.626 8.32722L14.1941 8.80438L14.7633 9.1049L18.3945 11.0223L14.328 11.5856L13.691 11.6739L13.9335 12.2695L15.4818 16.0715L12.0008 13.8882L11.4563 13.5467L11.2592 14.1585L10 18.0688L8.74077 14.1585L8.5436 13.5463L7.99891 13.8884L4.5229 16.0715L6.06667 12.269L6.3083 11.6738L5.672 11.5856L1.60555 11.0223L5.23673 9.1049L5.80585 8.80438L5.37396 8.32722L2.61824 5.28268L6.6335 6.14443L7.26178 6.27927L7.23808 5.63712L7.08657 1.53221L9.60511 4.77506Z" stroke="#3366FF"/>
<path opacity="0.5" d="M115.605 4.77506L116 5.28352L116.395 4.77506L118.913 1.53221L118.762 5.63712L118.738 6.27927L119.366 6.14443L123.382 5.28268L120.626 8.32722L120.194 8.80438L120.763 9.1049L124.394 11.0223L120.328 11.5856L119.691 11.6739L119.934 12.2695L121.482 16.0715L118.001 13.8882L117.456 13.5467L117.259 14.1585L116 18.0688L114.741 14.1585L114.544 13.5463L113.999 13.8884L110.523 16.0715L112.067 12.269L112.308 11.6738L111.672 11.5856L107.606 11.0223L111.237 9.1049L111.806 8.80438L111.374 8.32722L108.618 5.28268L112.634 6.14443L113.262 6.27927L113.238 5.63712L113.087 1.53221L115.605 4.77506Z" stroke="#3366FF"/>
<path opacity="0.5" d="M24.6051 64.7751L25 65.2835L25.3949 64.7751L27.9134 61.5322L27.7619 65.6371L27.7382 66.2793L28.3665 66.1444L32.3817 65.2827L29.626 68.3272L29.1941 68.8044L29.7633 69.1049L33.3945 71.0223L29.328 71.5856L28.691 71.6739L28.9335 72.2695L30.4818 76.0715L27.0008 73.8882L26.4563 73.5467L26.2592 74.1585L25 78.0688L23.7408 74.1585L23.5436 73.5463L22.9989 73.8884L19.5229 76.0715L21.0667 72.269L21.3083 71.6738L20.672 71.5856L16.6055 71.0223L20.2367 69.1049L20.8059 68.8044L20.374 68.3272L17.6182 65.2827L21.6335 66.1444L22.2618 66.2793L22.2381 65.6371L22.0866 61.5322L24.6051 64.7751Z" stroke="#3366FF"/>
<path opacity="0.5" d="M105.605 54.7751L106 55.2835L106.395 54.7751L108.913 51.5322L108.762 55.6371L108.738 56.2793L109.366 56.1444L113.382 55.2827L110.626 58.3272L110.194 58.8044L110.763 59.1049L114.394 61.0223L110.328 61.5856L109.691 61.6739L109.934 62.2695L111.482 66.0715L108.001 63.8882L107.456 63.5467L107.259 64.1585L106 68.0688L104.741 64.1585L104.544 63.5463L103.999 63.8884L100.523 66.0715L102.067 62.269L102.308 61.6738L101.672 61.5856L97.6055 61.0223L101.237 59.1049L101.806 58.8044L101.374 58.3272L98.6182 55.2827L102.634 56.1444L103.262 56.2793L103.238 55.6371L103.087 51.5322L105.605 54.7751Z" stroke="#3366FF"/>
<defs>
<linearGradient id="paint0_linear_3001_54381" x1="72.5" y1="14.5" x2="41" y2="160" gradientUnits="userSpaceOnUse">
<stop stop-color="#3366FF"/>
<stop offset="1" stop-color="#00279C" stop-opacity="0.66"/>
</linearGradient>
</defs>
</svg>
