<svg width="20" height="20" viewBox="0 0 20 20" fill="none" xmlns="http://www.w3.org/2000/svg">
<path d="M10.0004 0.398438C7.45431 0.398438 5.01251 1.40986 3.21217 3.21021C1.41182 5.01056 0.400391 7.45236 0.400391 9.99844C0.400456 11.2591 0.648833 12.5075 1.13134 13.6722C1.61384 14.8369 2.32103 15.8951 3.21252 16.7865C4.10401 17.6779 5.16234 18.385 6.32709 18.8674C7.49184 19.3498 8.7402 19.598 10.0009 19.5979C11.2616 19.5979 12.5099 19.3495 13.6746 18.867C14.8393 18.3845 15.8976 17.6773 16.789 16.7858C17.6804 15.8943 18.3874 14.836 18.8698 13.6712C19.3522 12.5065 19.6005 11.2581 19.6004 9.99744C19.6004 4.69644 15.3014 0.398438 10.0004 0.398438ZM10.0004 17.5974C9.00235 17.5974 8.01407 17.4009 7.092 17.0189C6.16992 16.637 5.3321 16.0772 4.62638 15.3714C3.92065 14.6657 3.36084 13.8279 2.97891 12.9058C2.59697 11.9838 2.40039 10.9955 2.40039 9.99744C2.40039 8.99939 2.59697 8.01112 2.97891 7.08904C3.36084 6.16697 3.92065 5.32915 4.62638 4.62343C5.3321 3.9177 6.16992 3.35789 7.092 2.97595C8.01407 2.59402 9.00235 2.39744 10.0004 2.39744V9.99844L16.7924 6.60244C17.3234 7.65575 17.6001 8.81885 17.6004 9.99844C17.6001 12.0139 16.7993 13.9467 15.374 15.3718C13.9488 16.7969 12.0159 17.5974 10.0004 17.5974Z" fill="#696F8C"/>
</svg>
